<svg width="101" height="140" viewBox="0 0 101 140" fill="none" xmlns="http://www.w3.org/2000/svg">
<path d="M32.2545 69.2993V93.4319C22.2869 84.9154 12.1787 82.2682 8 81.3959C12.1837 80.5135 22.2969 77.8461 32.2545 69.2993Z" fill="#231F20" stroke="#231F20" stroke-width="3" stroke-miterlimit="10"/>
<path d="M69.3813 70.7061V46.5736C79.349 55.0901 89.4572 57.7373 93.6359 58.6096C89.4521 59.492 79.339 62.1594 69.3813 70.7061Z" fill="#231F20" stroke="#231F20" stroke-width="3" stroke-miterlimit="10"/>
<path d="M68.8997 127.357C68.1573 129.031 64.9367 136.312 57.5876 138.939C54.5978 140.008 51.7635 140.018 50.2134 140.003C47.9711 139.972 45.5632 139.947 42.7189 138.848C37.6121 136.882 34.8882 132.938 33.8297 131.406C33.4384 130.841 32.4853 129.399 31.6124 127.357C30.5138 124.775 30.1326 122.602 30.0072 121.775C29.7413 120.01 29.7112 118.376 29.6861 116.959C29.6761 116.269 29.6811 115.694 29.6861 115.285V22.7285C29.6861 22.8344 29.6911 22.9403 29.6962 23.0512C29.7513 25.0681 30.0774 27.9221 31.3165 31.0685C32.079 32.9997 32.992 34.5679 33.8297 35.773V116.758C33.8096 118.321 33.9652 119.652 34.1457 120.665C34.4217 122.183 34.8029 123.308 34.9484 123.721C35.0437 123.993 35.4199 125.037 36.1022 126.338C37.0001 128.057 37.9131 129.232 38.2191 129.616C39.2575 130.922 40.2207 131.789 40.6069 132.122C40.9029 132.379 41.4748 132.858 42.2523 133.397C42.5282 133.589 43.065 133.957 43.7773 134.35C44.1887 134.577 45.2271 135.127 46.6668 135.586C48.4075 136.145 49.8121 136.276 50.2134 136.307C50.6298 136.342 52.225 136.458 54.2868 136.1C56.6395 135.692 58.3451 134.89 59.0574 134.522C60.738 133.665 61.8717 132.717 62.5338 132.157C63.3465 131.471 63.8783 130.916 64.0538 130.725C64.6307 130.11 65.1173 129.49 65.6641 128.698C67.7359 125.698 68.975 122.894 68.975 122.894C69.6522 121.356 70.3896 119.359 70.9364 116.959C70.9966 119.773 70.6154 123.479 68.8997 127.357Z" fill="#231F20"/>
<path d="M70.9464 24.7202V117.277C70.9464 117.176 70.9414 117.065 70.9364 116.959C70.8862 114.937 70.5602 112.083 69.3161 108.937C68.5586 107.006 67.6406 105.438 66.8079 104.233V23.2478C66.8279 21.6847 66.6724 20.3586 66.4868 19.34C66.2159 17.8223 65.8347 16.6979 65.6892 16.2844C65.5939 16.0121 65.2177 14.9684 64.5354 13.6674C63.6375 11.948 62.7195 10.7731 62.4185 10.3899C61.375 9.08397 60.4169 8.21669 60.0306 7.88389C59.7347 7.62674 59.1628 7.14772 58.3852 6.60819C58.1093 6.41658 57.5726 6.04849 56.8602 5.65519C56.4489 5.42828 55.4105 4.87867 53.9708 4.41982C52.225 3.86517 50.8204 3.72902 50.4241 3.69877C50.0078 3.66347 48.4125 3.5475 46.3508 3.9055C43.9981 4.31393 42.2874 5.1207 41.5801 5.48375C39.8996 6.34094 38.7659 7.2889 38.1037 7.8486C37.2911 8.53435 36.7593 9.08901 36.5837 9.28062C36.0069 9.90082 35.5203 10.516 34.9735 11.3127C32.8967 14.3078 31.6626 17.1113 31.6626 17.1113C30.9854 18.6492 30.248 20.646 29.6962 23.0512C29.641 20.2325 30.0222 16.5315 31.7379 12.6489C32.4803 10.9748 35.7008 3.69373 43.0449 1.06668C46.0398 -0.00229388 48.8741 -0.0123785 50.4241 0.00274844C52.6665 0.02796 55.0694 0.0531716 57.9187 1.1524C63.0255 3.1189 65.7494 7.062 66.8079 8.59486C67.1992 9.1596 68.1523 10.6017 69.0251 12.6438C70.1237 15.2306 70.505 17.3988 70.6304 18.2257C70.8963 19.9905 70.9264 21.6242 70.9464 23.0461C70.9615 23.7319 70.9565 24.3067 70.9464 24.7152V24.7202Z" fill="#231F20"/>
</svg>
