<?xml version="1.0" encoding="UTF-8"?>
<svg id="Layer_2" data-name="Layer 2" xmlns="http://www.w3.org/2000/svg" viewBox="0 0 184.96 277.95">
  <defs>
    <style>
      .cls-1, .cls-2 {
        fill: #e9e85a;
        stroke: #e9e85a;
        stroke-miterlimit: 10;
      }

      .cls-2 {
        stroke-width: 3px;
      }
    </style>
  </defs>
  <g id="logo_final" data-name="logo final">
    <g>
      <path class="cls-2" d="M55.57,137.58v47.74c-19.82-16.85-39.92-22.08-48.23-23.81,8.32-1.75,28.43-7.02,48.23-23.93Z"/>
      <path class="cls-2" d="M129.39,140.36v-47.74c19.82,16.85,39.92,22.08,48.23,23.81-8.32,1.75-28.43,7.02-48.23,23.93Z"/>
      <path class="cls-1" d="M128.44,252.43c-1.48,3.31-7.88,17.71-22.49,22.91-5.94,2.11-11.58,2.13-14.66,2.1-4.46-.06-9.25-.11-14.9-2.28-10.15-3.89-15.57-11.69-17.67-14.72-.78-1.12-2.67-3.97-4.41-8.01-2.18-5.11-2.94-9.41-3.19-11.04-.53-3.49-.59-6.72-.64-9.53-.02-1.37,0-2.5,0-3.31V45.45c0,.21,0,.42.02.64.11,3.99.76,9.64,3.22,15.86,1.52,3.82,3.33,6.92,5,9.31v160.2c-.04,3.09.27,5.73.63,7.73.55,3,1.31,5.23,1.6,6.04.19.54.94,2.6,2.29,5.18,1.79,3.4,3.6,5.73,4.21,6.48,2.06,2.58,3.98,4.3,4.75,4.96.59.51,1.73,1.46,3.27,2.52.55.38,1.62,1.11,3.03,1.88.82.45,2.88,1.54,5.75,2.44,3.46,1.11,6.25,1.37,7.05,1.43.83.07,4,.3,8.1-.41,4.68-.81,8.07-2.39,9.49-3.12,3.34-1.7,5.6-3.57,6.91-4.68,1.62-1.36,2.67-2.45,3.02-2.83,1.15-1.22,2.11-2.44,3.2-4.01,4.12-5.93,6.58-11.48,6.58-11.48,1.35-3.04,2.81-6.99,3.9-11.74.12,5.57-.64,12.9-4.05,20.57Z"/>
      <path class="cls-1" d="M132.5,49.39v183.09c0-.2,0-.42-.02-.63-.1-4-.75-9.65-3.22-15.87-1.51-3.82-3.33-6.92-4.99-9.31V46.48c.04-3.09-.27-5.72-.64-7.73-.54-3-1.3-5.23-1.59-6.04-.19-.54-.94-2.6-2.29-5.18-1.79-3.4-3.61-5.73-4.21-6.48-2.07-2.58-3.98-4.3-4.75-4.96-.59-.51-1.73-1.46-3.27-2.52-.55-.38-1.62-1.11-3.03-1.89-.82-.45-2.88-1.54-5.75-2.44-3.47-1.1-6.26-1.37-7.05-1.43-.83-.07-4-.3-8.1.41-4.68.81-8.08,2.4-9.49,3.12-3.34,1.7-5.6,3.57-6.91,4.68-1.62,1.36-2.67,2.45-3.02,2.83-1.15,1.23-2.11,2.44-3.2,4.02-4.13,5.92-6.58,11.47-6.58,11.47-1.35,3.04-2.81,6.99-3.91,11.75-.11-5.58.65-12.9,4.06-20.58,1.48-3.31,7.88-17.71,22.48-22.91,5.95-2.11,11.59-2.13,14.67-2.09,4.46.05,9.24.1,14.9,2.27,10.15,3.89,15.57,11.69,17.67,14.72.78,1.12,2.67,3.97,4.41,8.01,2.18,5.12,2.94,9.41,3.19,11.04.53,3.49.59,6.72.63,9.54.03,1.36.02,2.49,0,3.3Z"/>
    </g>
  </g>
</svg>