<svg width="332" height="67" viewBox="0 0 332 67" fill="none" xmlns="http://www.w3.org/2000/svg">
<g clip-path="url(#clip0_3_63)">
<path d="M0 33.5668C0 22.6083 7.11462 15.0434 17.3287 15.0434C27.5427 15.0434 34.3756 22.0427 34.3756 32.9305V35.5464L8.17125 35.6171C8.80522 41.768 12.0455 44.8788 17.7513 44.8788C22.4709 44.8788 25.5704 43.0406 26.5566 39.7177H34.5165C33.0372 47.3533 26.6974 51.9488 17.6104 51.9488C7.25551 51.9488 0 44.3839 0 33.5668ZM8.38257 30.1025H25.8521C25.8521 25.2949 22.5414 22.1134 17.3991 22.1134C12.2569 22.1134 9.22788 24.8707 8.38257 30.1025Z" fill="#231F20"/>
<path d="M27.5741 1.25337e-05H40.6214L49.2545 22.8675C51.3599 28.8142 53.0662 33.9517 53.6688 36.6697C54.3732 33.5432 56.1812 28.3114 58.2867 22.8675L67.3189 1.25337e-05H79.9671C72.7742 9.72519 67.9998 18.7198 64.8612 25.6013C60.3999 35.3814 58.1536 43.2762 57.4257 45.9236C55.2185 54.0069 54.0915 61.2105 53.5123 66.9922C52.5809 61.5718 51.1173 54.329 48.8005 45.9236C47.2195 40.1812 45.3723 33.4882 42.0772 25.6327C39.33 19.0811 34.8609 10.0158 27.5819 -0.00784302L27.5741 1.25337e-05Z" fill="#231F20"/>
<path d="M72.3672 30.8802C72.3672 19.9217 79.4818 12.3568 89.6959 12.3568C99.9099 12.3568 106.743 19.3561 106.743 30.2439V32.8598L80.5385 32.9305C81.1724 39.0814 84.4128 42.1922 90.1185 42.1922C94.8381 42.1922 97.9376 40.354 98.9238 37.0311H106.884C105.404 44.6667 99.0646 49.2622 89.9777 49.2622C79.6227 49.2622 72.3672 41.6973 72.3672 30.8802ZM80.7498 27.4159H98.2193C98.2193 22.6083 94.9086 19.4268 89.7663 19.4268C84.6241 19.4268 81.5951 22.1841 80.7498 27.4159Z" fill="#231F20"/>
<path d="M112.081 48.3431V13.4173H120.041L120.745 17.9421C122.929 14.4071 127.155 12.3568 131.875 12.3568C140.61 12.3568 145.118 17.8007 145.118 26.8503V48.3431H136.524V28.9006C136.524 23.0325 133.636 20.2045 129.198 20.2045C123.915 20.2045 120.675 23.8809 120.675 29.5369V48.3431H112.081Z" fill="#231F20"/>
<path d="M157.148 48.3431V24.8864C157.148 22.5376 155.254 20.6365 152.913 20.6365H150.456V13.4251H157.148V0H165.742V13.4173H172.504V20.6287H165.742V48.3431H157.148Z" fill="#231F20"/>
<path d="M184.534 48.3431V20.6287H177.842V13.4173H184.534V0H193.128V8.484C193.128 11.2099 195.327 13.4173 198.043 13.4173H199.89V20.6287H193.128V48.3431H184.534Z" fill="#231F20"/>
<path d="M237.78 13.4173V48.3431H229.82L229.186 43.6769C227.073 46.9998 222.565 49.2622 217.916 49.2622C209.885 49.2622 205.166 43.8183 205.166 35.2636V13.4173H213.76V32.2235C213.76 38.8693 216.366 41.5559 221.156 41.5559C226.58 41.5559 229.186 38.3744 229.186 31.7286V13.4173H237.78Z" fill="#231F20"/>
<path d="M264.955 21.265H261.785C255.586 21.265 251.712 24.5879 251.712 31.3751V48.3431H243.118V13.488H251.219L251.712 18.5784C253.191 15.1141 256.502 12.781 261.151 12.781C262.349 12.781 263.546 12.9224 264.955 13.2759V21.265Z" fill="#231F20"/>
<path d="M270.316 30.8802C270.316 19.9217 277.431 12.3568 287.645 12.3568C297.859 12.3568 304.692 19.3561 304.692 30.2439V32.8598L278.488 32.9305C279.122 39.0814 282.362 42.1922 288.068 42.1922C292.787 42.1922 295.887 40.354 296.873 37.0311H304.833C303.354 44.6667 297.014 49.2622 287.927 49.2622C277.572 49.2622 270.316 41.6973 270.316 30.8802ZM278.699 27.4159H296.169C296.169 22.6083 292.858 19.4268 287.716 19.4268C282.573 19.4268 279.544 22.1841 278.699 27.4159Z" fill="#231F20"/>
<path d="M332 21.265H328.83C322.631 21.265 318.757 24.5879 318.757 31.3751V48.3431H310.163V13.488H318.264L318.757 18.5784C320.236 15.1141 323.547 12.781 328.196 12.781C329.394 12.781 330.591 12.9224 332 13.2759V21.265Z" fill="#231F20"/>
</g>
<defs>
<clipPath id="clip0_3_63">
<rect width="332" height="67" fill="white"/>
</clipPath>
</defs>
</svg>
